Coordinates
version=1
nRows=24
nColumns=24
inDegrees=yes

Units are S.I. units (second, meters, Newtons, ...)
Angles are in degrees.

endheader
time	pelvis_tilt	pelvis_list	pelvis_rotation	pelvis_tx	pelvis_ty	pelvis_tz	hip_flexion_r	hip_adduction_r	hip_rotation_r	knee_angle_r	ankle_angle_r	subtalar_angle_r	mtp_angle_r	hip_flexion_l	hip_adduction_l	hip_rotation_l	knee_angle_l	ankle_angle_l	subtalar_angle_l	mtp_angle_l	lumbar_extension	lumbar_bending	lumbar_rotation
      5.89000000	     -4.25244224	      6.25412729	     -2.18437777	     -1.77209526	      0.67009455	      0.10253261	     31.73754036	     -3.52500729	      4.98009486	    -29.90806439	      5.92150417	    -22.98452823	      0.00000000	     -4.39605522	     11.43473537	      0.25719862	     -7.62654068	     15.05675702	     -6.77755600	      0.00000000	    -11.30946620	    -10.41029616	     -9.16889526
      5.90000000	     -4.10311603	      6.43765162	     -1.35551303	     -1.76276573	      0.66931512	      0.10267609	     31.13635378	     -4.16389108	      4.57148269	    -25.27176102	      5.40336507	    -20.92736661	      0.00000000	     -5.66110626	     11.46245009	      1.05606028	     -7.36406223	     15.20850357	     -6.32494865	      0.00000000	    -11.55377345	    -10.49230639	     -9.82824320
      5.91000000	     -4.05565703	      6.71873384	     -0.46494003	     -1.75327462	      0.66827381	      0.10270701	     30.57116490	     -4.93202479	      4.04239391	    -20.68157668	      4.62174888	    -18.60180941	      0.00000000	     -6.80310145	     11.55744809	      1.94671346	     -7.18290216	     15.31517375	     -5.93152304	      0.00000000	    -11.64554129	    -10.63527825	    -10.50476151
      5.92000000	     -3.97663693	      7.01463258	      0.43292173	     -1.74358411	      0.66711513	      0.10273932	     29.90094908	     -5.70114723	      3.49301319	    -16.21344241	      3.69769326	    -16.08122618	      0.00000000	     -7.98652312	     11.62909767	      2.87939381	     -7.03914642	     15.42596732	     -5.54762430	      0.00000000	    -11.75409770	    -10.78919531	    -11.17184179
      5.93000000	     -3.85822261	      7.30746276	      1.32225903	     -1.73369539	      0.66586766	      0.10278651	     29.14476732	     -6.43715803	      2.99767304	    -11.98796409	      2.77356241	    -13.46477197	      0.00000000	     -9.20558113	     11.65953635	      3.81165654	     -6.95268550	     15.52042209	     -5.19738745	      0.00000000	    -11.88507164	    -10.93090938	    -11.80251010
      5.94000000	     -3.73333478	      7.57731678	      2.19840547	     -1.72362153	      0.66453043	      0.10285700	     28.36682086	     -7.11137148	      2.67476705	     -8.13479984	      2.00053744	    -11.01376110	      0.00000000	    -10.40940073	     11.63013145	      4.72278087	     -6.94200578	     15.60882743	     -4.85471548	      0.00000000	    -11.99692575	    -11.03863244	    -12.38684646
      5.95000000	     -3.62384467	      7.80488092	      3.05890562	     -1.71339098	      0.66312638	      0.10295980	     27.63058655	     -7.71046681	      2.56713848	     -4.77407585	      1.54722755	     -8.94331910	      0.00000000	    -11.55352965	     11.52406809	      5.57835512	     -7.03055369	     15.68766912	     -4.49249759	      0.00000000	    -12.07049038	    -11.10113989	    -12.91238768
      5.96000000	     -3.65293208	      8.06566605	      3.94432145	     -1.70307766	      0.66158225	      0.10305909	     27.09921888	     -8.33319609	      2.81153704	     -1.99177796	      1.40975217	     -7.67248343	      0.00000000	    -12.46660507	     11.43181588	      6.38008481	     -7.29853453	     15.78092478	     -4.04055088	      0.00000000	    -11.98370711	    -11.21746225	    -13.40964906
      5.97000000	     -3.58173021	      8.16095210	      4.77534105	     -1.69257023	      0.66014434	      0.10321641	     26.54654123	     -8.75809606	      3.04247260	      0.13602559	      1.87521589	     -6.77624365	      0.00000000	    -13.43796615	     11.14026788	      7.07817840	     -7.62961464	     15.84885539	     -3.59665390	      0.00000000	    -11.97005292	    -11.13043940	    -13.82447686
      5.98000000	     -3.47013556	      8.14245408	      5.55443275	     -1.68191343	      0.65878510	      0.10344877	     26.08173353	     -9.01489267	      3.08178986	      1.55186515	      2.67473975	     -6.11499034	      0.00000000	    -14.38227336	     10.70970541	      7.59879140	     -8.04268801	     15.86408762	     -3.13632565	      0.00000000	    -11.96679136	    -10.91371544	    -14.18955391
      5.99000000	     -3.51978802	      8.12937288	      6.36255759	     -1.67118057	      0.65732382	      0.10370841	     25.92147596	     -9.25205742	      3.15999311	      2.22524292	      3.63612868	     -6.08546590	      0.00000000	    -15.06793996	     10.27860978	      8.10850295	     -8.61145293	     15.82504386	     -2.62273492	      0.00000000	    -11.77654459	    -10.73029176	    -14.50808574
      6.00000000	     -3.54264841	      8.04572280	      7.12519615	     -1.66026683	      0.65591007	      0.10410001	     25.85294886	     -9.34363776	      3.06127646	      2.21736262	      4.48060895	     -6.40862729	      0.00000000	    -15.71338476	      9.74759552	      8.43104585	     -9.26504932	     15.74796744	     -1.95109687	      0.00000000	    -11.58347456	    -10.48435873	    -14.76976733
      6.01000000	     -3.64365351	      7.93168429	      7.81504594	     -1.64914563	      0.65441455	      0.10462826	     25.94447605	     -9.33486774	      3.02673013	      1.64186072	      5.02777259	     -6.96666870	      0.00000000	    -16.24602746	      9.20020707	      8.76720313	     -9.95209629	     15.50929024	     -1.53406586	      0.00000000	    -11.25165858	    -10.22983459	    -15.00292117
      6.02000000	     -3.68567570	      7.77166964	      8.44396757	     -1.63779597	      0.65294414	      0.10535044	     25.98458451	     -9.20354383	      3.12284481	      0.68219703	      4.64387224	     -8.31147679	      0.00000000	    -16.72982654	      8.55050933	      8.66711214	    -10.80835279	     15.48031749	     -0.35473733	      0.00000000	    -10.95838375	     -9.95559844	    -15.15973531
      6.03000000	     -3.78320836	      7.51041991	      9.02871343	     -1.62627420	      0.65145514	      0.10612204	     26.18476222	     -8.92861638	      2.81011905	     -0.75282018	      4.11738975	     -9.00831469	      0.00000000	    -17.15830536	      7.83471737	      8.89845212	    -11.60702437	     14.95767550	     -0.01129400	      0.00000000	    -10.55668411	     -9.56225106	    -15.27673339
      6.04000000	     -3.83324970	      7.19633830	      9.49263460	     -1.61462299	      0.64996232	      0.10715740	     26.22699081	     -8.49748563	      3.54746184	     -2.15598715	      1.79302239	    -11.73849346	      0.00000000	    -17.50119788	      7.04120358	      8.73563187	    -12.60173474	     14.71162892	      1.00359245	      0.00000000	    -10.19155372	     -9.14666056	    -15.38592663
      6.05000000	     -3.82955353	      6.71454691	      9.84597507	     -1.60298314	      0.64863194	      0.10827262	     26.33934736	     -7.82036138	      4.09878055	     -3.84612261	     -0.78746306	    -14.05233882	      0.00000000	    -17.78782240	      6.12104665	      8.63620776	    -13.68550793	     14.10194735	      1.56727062	      0.00000000	     -9.87610286	     -8.50050249	    -15.39103205
      6.06000000	     -3.75250340	      6.06095010	     10.00659968	     -1.59145704	      0.64752012	      0.10956773	     26.50877469	     -6.83845626	      4.93335990	     -5.74596162	     -3.60360500	    -16.52799593	      0.00000000	    -17.97203229	      5.09078312	      8.38389648	    -14.95554510	     13.27128967	      1.98570675	      0.00000000	     -9.64153400	     -7.63171340	    -15.28188641
      6.07000000	     -3.55556087	      5.24801874	      9.91451071	     -1.58015330	      0.64673297	      0.11105117	     26.75075317	     -5.52349515	      6.01452747	     -7.95661568	     -6.01621883	    -18.86107488	      0.00000000	    -18.06112809	      3.98910590	      7.90367318	    -16.48019295	     12.14401960	      2.24443806	      0.00000000	     -9.57617408	     -6.52246069	    -15.03769276
      6.08000000	     -3.24228150	      4.32724118	      9.57665254	     -1.56913412	      0.64631935	      0.11268482	     27.05650365	     -3.92477027	      7.19886161	    -10.50582902	     -7.44057201	    -20.75177879	      0.00000000	    -18.02116071	      2.87953034	      7.19192902	    -18.32657055	     10.62506799	      2.31705837	      0.00000000	     -9.71177257	     -5.21875680	    -14.69648817
      6.09000000	     -2.85251120	      3.37388819	      9.06246809	     -1.55840370	      0.64626865	      0.11440006	     27.35189566	     -2.16147119	      8.34358762	    -13.24717285	     -7.72784771	    -22.13059751	      0.00000000	    -17.78444869	      1.82593394	      6.29955874	    -20.55332378	      8.60396144	      2.15591806	      0.00000000	    -10.03313317	     -3.81082433	    -14.33168445
      6.10000000	     -2.55233858	      2.47351164	      8.54511639	     -1.54794398	      0.64649459	      0.11607847	     27.63811537	     -0.44634714	      9.27106025	    -15.90601257	     -7.02872698	    -22.93353768	      0.00000000	    -17.13763276	      0.87166998	      5.38166941	    -23.20563259	      5.90627913	      1.83059820	      0.00000000	    -10.35401858	     -2.44099743	    -14.12240250
      6.11000000	     -2.17206506	      1.62132518	      7.95250979	     -1.53771966	      0.64708313	      0.11777048	     27.56418433	      1.25311327	     10.18594214	    -18.11021234	     -6.10988508	    -23.84961827	      0.00000000	    -16.25168577	     -0.02682476	      4.28990041	    -26.27543871	      2.75793573	      1.29604994	      0.00000000	    -10.87729507	     -1.08308614	    -13.85040326
      6.12000000	     -1.88539424	      0.85109366	      7.52929473	     -1.52773639	      0.64799539	      0.11934592	     27.20738244	      2.72834791	     10.85775475	    -19.65248715	     -5.04837971	    -24.61318261	      0.00000000	    -14.94345091	     -0.88880771	      3.41400622	    -29.68810516	     -1.00291109	      0.63172129	      0.00000000	    -11.37305701	      0.15986371	    -13.77573633
